<svg width="19" height="21" viewBox="0 0 19 21" fill="none" xmlns="http://www.w3.org/2000/svg">
<path d="M9.5 0C8.78 1.92067 8.04616 3.91989 6.47602 5.45046C6.9634 5.29334 7.81632 5.15248 8.36462 5.16602V13.2442L6.03294 13.5828C5.94987 13.5747 5.92217 13.4474 5.92217 13.274C5.69787 10.7655 5.09141 8.65789 4.39357 6.47717C4.34372 6.17918 3.46034 5.04141 4.14157 5.24187C4.22465 5.25271 5.13572 5.61571 4.99172 5.44234C3.75111 4.18537 1.93728 3.28057 0.176058 3.01238C0.0209817 2.97446 -0.0704023 3.05031 0.0680584 3.22639C2.40527 6.74536 4.36034 10.8982 4.34372 15.8259C5.25203 15.8259 7.45355 15.3003 8.36462 15.3003V21H9.51384L9.77692 5.08204L9.5 0Z" fill="black"/>
<path d="M9.5 0C10.22 1.92067 10.9538 3.91989 12.524 5.45046C12.0366 5.29334 11.1837 5.15248 10.6354 5.16602V13.2442L12.9671 13.5828C13.0501 13.5747 13.0778 13.4474 13.0778 13.274C13.3021 10.7655 13.9086 8.65789 14.6064 6.47717C14.6563 6.17918 15.5397 5.04141 14.8584 5.24187C14.7754 5.25271 13.8643 5.61571 14.0083 5.44234C15.2489 4.18537 17.0627 3.28057 18.8239 3.01238C18.979 2.97446 19.0704 3.05031 18.9319 3.22639C16.5947 6.74536 14.6397 10.8982 14.6563 15.8259C13.748 15.8259 11.5464 15.3003 10.6354 15.3003V21H9.48616L9.22308 5.08204L9.5 0Z" fill="black"/>
</svg>
